<svg xmlns="http://www.w3.org/2000/svg" width="20" height="21" viewBox="0 0 20 21">
  <metadata><?xpacket begin="﻿" id="W5M0MpCehiHzreSzNTczkc9d"?>
<x:xmpmeta xmlns:x="adobe:ns:meta/" x:xmptk="Adobe XMP Core 5.6-c138 79.159824, 2016/09/14-01:09:01        ">
   <rdf:RDF xmlns:rdf="http://www.w3.org/1999/02/22-rdf-syntax-ns#">
      <rdf:Description rdf:about=""/>
   </rdf:RDF>
</x:xmpmeta>
                                                                                                    
                                                                                                    
                                                                                                    
                                                                                                    
                                                                                                    
                                                                                                    
                                                                                                    
                                                                                                    
                                                                                                    
                                                                                                    
                                                                                                    
                                                                                                    
                                                                                                    
                                                                                                    
                                                                                                    
                                                                                                    
                                                                                                    
                                                                                                    
                                                                                                    
                                                                                                    
                           
<?xpacket end="w"?></metadata>
<defs>
    <style>
      .cls-1 {
        fill: #343e5c;
        fill-rule: evenodd;
      }
    </style>
  </defs>
  <path id="Search_Icon" data-name="Search Icon" class="cls-1" d="M1119.41,128.371a1.91,1.91,0,0,1-2.79,0l-4.07-4.271a7.967,7.967,0,0,1-10.13-1.267,9,9,0,0,1,0-12.3,8,8,0,0,1,11.71,0,9.01,9.01,0,0,1,1.21,10.639l4.07,4.272A2.143,2.143,0,0,1,1119.41,128.371Zm-7.51-15.5a4.954,4.954,0,0,0-7.25,0,5.581,5.581,0,0,0,0,7.614,4.953,4.953,0,0,0,7.25,0A5.581,5.581,0,0,0,1111.9,112.875Z" transform="translate(-1100 -108)"/>
</svg>
